<svg xmlns="http://www.w3.org/2000/svg" viewBox="0 0 128 128" fill="none">
  <defs>
    <linearGradient id="g" x1="0" y1="0" x2="128" y2="128" gradientUnits="userSpaceOnUse">
      <stop offset="0%" stop-color="#4f46e5"/>
      <stop offset="100%" stop-color="#7c3aed"/>
    </linearGradient>
  </defs>
  <!-- Shield -->
  <path d="M64 8L16 30v30c0 28 20 54 48 60 28-6 48-32 48-60V30L64 8z" fill="url(#g)"/>
  <!-- Eye shape (white cutout) -->
  <ellipse cx="64" cy="58" rx="28" ry="18" fill="white" opacity="0.95"/>
  <!-- Iris -->
  <circle cx="64" cy="58" r="11" fill="url(#g)"/>
  <!-- Pupil -->
  <circle cx="64" cy="58" r="5" fill="white"/>
  <!-- Pupil highlight -->
  <circle cx="67" cy="55" r="2" fill="white" opacity="0.8"/>
  <!-- Veil lines across bottom of shield -->
  <path d="M28 76c12-4 24-6 36-6s24 2 36 6" stroke="white" stroke-width="2.5" stroke-linecap="round" fill="none" opacity="0.5"/>
  <path d="M32 84c10-3 21-5 32-5s22 2 32 5" stroke="white" stroke-width="2" stroke-linecap="round" fill="none" opacity="0.35"/>
  <path d="M38 91c8-2 17-4 26-4s18 2 26 4" stroke="white" stroke-width="1.5" stroke-linecap="round" fill="none" opacity="0.2"/>
</svg>
